<?xml version="1.0" ?><!DOCTYPE svg  PUBLIC '-//W3C//DTD SVG 1.1//EN'  'http://www.w3.org/Graphics/SVG/1.1/DTD/svg11.dtd'><svg enable-background="new 0 0 512 512" height="512px" id="Layer_1" version="1.1" viewBox="0 0 512 512" width="512px" xml:space="preserve" xmlns="http://www.w3.org/2000/svg" xmlns:xlink="http://www.w3.org/1999/xlink"><g><linearGradient gradientTransform="matrix(1 0 0 -1 -41.66 349.04)" gradientUnits="userSpaceOnUse" id="SVGID_1_" x1="302.5877" x2="440.6016" y1="129.672" y2="333.6924"><stop offset="0" style="stop-color:#00B489"/><stop offset="1" style="stop-color:#00CC99"/></linearGradient><path d="M366.683,254.749c-4.393,1.179-8.893,1.929-13.608,2.357c-22.608,2.143-41.68-4.5-54.217-24.537   c-7.5-12.001-9.536-25.501-8.786-39.43c0.321-5.572,1.393-11.036,4.286-15.965c2.786-4.5,6.536-7.5,12.108-7.715   c7.929-0.321,13.394,4.607,15.644,14.144c2.786,12.215,0.857,24.323-2.464,36.109c-0.321,1.179-0.964,3.75-0.964,3.75   s1.607,1.822,2.786,3c8.143,8.25,18.215,10.072,29.251,9.215c1.714-0.107,4.072-0.321,4.072-0.321s1.072-2.786,1.5-3.964   c5.893-16.179,8.357-32.68,6.536-49.931c-2.464-24.537-15.536-45.859-46.824-49.074c-27.966-2.786-51.217,10.072-60.967,36.752   c-5.572,15.322-5.893,31.073-3,46.931c4.715,26.466,17.251,48.002,41.038,61.824c2.357,1.393,2.464,2.464,1.286,4.715   c-9.643,18.429-21.323,35.573-35.252,51.002c-6,6.643-6,6.643-11.679-0.536c-28.501-36.109-44.252-77.897-53.146-122.577   c-2.464-12.215-4.393-24.43-6-36.859l-0.321-4.286h-42.645l0.322,2.464c5.357,38.466,13.5,76.182,27.966,112.505   c10.608,26.573,23.894,51.645,43.288,73.075c6.322,6.965,13.179,13.286,21.108,18.322c9.322,6,18.322,5.572,27.323-0.643   c2.572-1.822,5.036-3.75,7.286-5.786c24.537-22.287,44.467-48.109,59.467-77.682c1.179-2.357,2.357-3.322,5.143-3.429   c6.215,0,12.429-0.75,18.644-1.822c3.643-0.643,7.179-1.393,10.715-2.25v-29.359h0.104V254.749z" fill="url(#SVGID_1_)"/></g></svg>